# xmcd
#
# Track frame offsets: 
#        150
#        19985
#        47415
#        72677
#        102245
#        150805
#        189806
#        212025
#        241681
#        257502
#
# Disc length: 3687 seconds
#
# Revision: 0
# Processed by: cddbd v1.5.2PL0 Copyright (c) Steve Scherf et al.
# Submitted via: ExactAudioCopy v1.3
#
DISCID=760e650a
DTITLE=David Gogo - Dine Under The Stars
DYEAR=1997
DGENRE=Modern Electric Blues
TTITLE0=Don't Lose Your Cool
TTITLE1=You Belong To Me
TTITLE2=Tell Me
TTITLE3=Sweet Little Angel
TTITLE4=Hoochie Coochie Man
TTITLE5=Death Letter
TTITLE6=Sad and Beautiful
TTITLE7=I Feel So Good
TTITLE8=Western Coast
TTITLE9=Fine Young Thing
EXTD=
EXTT0=
EXTT1=
EXTT2=
EXTT3=
EXTT4=
EXTT5=
EXTT6=
EXTT7=
EXTT8=
EXTT9=
PLAYORDER=
